<?xml version="1.0" standalone="no"?>
<!DOCTYPE svg PUBLIC "-//W3C//DTD SVG 20010904//EN"
 "http://www.w3.org/TR/2001/REC-SVG-20010904/DTD/svg10.dtd">
<svg version="1.0" xmlns="http://www.w3.org/2000/svg"
 width="500.000000pt" height="500.000000pt" viewBox="0 0 500.000000 500.000000"
 preserveAspectRatio="xMidYMid meet">

<g transform="translate(0.000000,500.000000) scale(0.100000,-0.100000)"
fill="#000000" stroke="none">
<path d="M3956 4230 l-179 -5 -69 -160 c-38 -88 -148 -344 -245 -570 -225
-525 -242 -561 -252 -549 -8 8 -65 129 -159 334 -11 25 -48 104 -82 175 -34
72 -75 157 -90 190 -15 33 -48 103 -73 155 -24 52 -66 140 -91 195 -26 54 -52
103 -59 107 -18 11 -291 10 -322 -2 -30 -11 -35 -22 -439 -885 -70 -148 -130
-273 -134 -277 -5 -5 -52 94 -105 219 -53 126 -137 325 -188 443 -131 309
-175 413 -216 515 -20 50 -40 96 -46 103 -7 9 -66 12 -233 12 -123 0 -224 -2
-224 -4 0 -2 20 -46 44 -98 41 -85 166 -367 529 -1188 74 -168 173 -393 220
-500 47 -107 130 -296 185 -420 l99 -225 188 0 188 0 20 35 c11 19 73 141 139
270 65 129 122 236 126 238 4 1 68 -121 143 -270 l136 -273 189 -3 190 -2 18
37 c39 81 273 610 371 838 56 132 171 398 255 590 83 193 198 458 255 590 57
132 117 271 134 308 21 47 27 69 18 72 -30 9 -73 10 -241 5z m-1367 -862 c305
-626 423 -880 417 -901 -9 -37 -96 -217 -104 -217 -4 0 -48 84 -97 188 -49
103 -140 292 -202 421 -126 260 -120 254 -163 151 -12 -30 -79 -172 -149 -315
-69 -143 -146 -304 -171 -357 -25 -53 -49 -96 -53 -95 -18 5 -108 230 -102
254 3 13 118 253 255 534 138 281 250 514 250 520 0 5 6 9 13 9 7 0 54 -87
106 -192z"/>
<path d="M455 1470 c-3 -5 1 -31 9 -57 42 -134 58 -192 63 -235 3 -27 12 -53
19 -59 7 -5 34 -9 60 -7 48 3 48 4 57 43 4 22 13 60 20 85 6 25 10 51 9 58 -2
6 4 12 13 12 20 0 43 -54 52 -118 10 -76 16 -83 76 -80 l51 3 9 45 c5 25 24
98 43 163 40 139 40 144 13 152 -41 13 -68 -2 -74 -43 -11 -67 -26 -127 -35
-142 -16 -26 -37 7 -59 94 -12 44 -27 84 -34 88 -15 11 -69 1 -78 -14 -4 -6
-10 -31 -14 -55 -8 -52 -32 -113 -45 -113 -5 0 -12 6 -17 13 -11 17 -32 97
-33 124 0 12 -7 29 -16 37 -17 18 -79 22 -89 6z"/>
<path d="M1052 1472 c-9 -7 -12 -50 -10 -183 l3 -174 43 -3 42 -3 0 70 0 70
44 6 c75 12 85 4 88 -73 l3 -67 36 -3 36 -3 6 113 c15 250 12 264 -51 252 -28
-6 -28 -7 -28 -72 l1 -67 -65 0 -65 0 -3 65 c-2 36 -8 68 -15 72 -16 10 -49
10 -65 0z"/>
<path d="M1462 1471 c-9 -6 -12 -50 -10 -182 l3 -174 38 -3 c25 -2 37 1 37 10
0 7 2 86 4 176 2 89 0 164 -3 166 -18 10 -58 14 -69 7z"/>
<path d="M1626 1472 c-12 -3 -16 -11 -14 -30 3 -24 8 -27 53 -32 l50 -5 0
-145 0 -145 43 -3 42 -3 0 152 0 152 44 -5 c49 -6 66 4 66 39 0 15 -6 23 -17
24 -72 3 -252 3 -267 1z"/>
<path d="M2777 1471 l-28 -6 0 -175 -1 -175 44 0 43 0 3 73 3 72 44 0 c72 0
75 -3 75 -81 l0 -69 45 0 45 0 0 88 c0 49 3 130 6 179 l7 91 -31 7 c-61 13
-72 2 -72 -76 l0 -69 -60 0 -60 0 0 69 c0 54 -4 70 -16 75 -9 3 -16 5 -17 5
-1 -1 -15 -4 -30 -8z"/>
<path d="M3295 1473 c-11 -3 -24 -8 -28 -13 -8 -7 -54 -131 -83 -222 -8 -25
-21 -59 -29 -75 -23 -44 -19 -53 25 -53 34 0 42 4 55 30 16 30 17 31 83 28 61
-3 67 -5 72 -28 5 -22 12 -25 54 -28 43 -3 48 -1 43 15 -5 16 -119 335 -121
340 -3 6 -54 10 -71 6z m46 -154 c4 -13 7 -36 8 -51 1 -25 -2 -28 -34 -28 -31
0 -35 3 -35 25 0 34 28 87 43 82 6 -2 14 -14 18 -28z"/>
<path d="M3576 1472 c-5 -9 -8 -107 -7 -259 1 -90 3 -102 20 -108 10 -3 28 -2
41 3 20 7 23 16 24 63 l1 54 60 6 c33 3 70 12 83 20 34 21 55 75 49 127 -6 55
-31 82 -88 93 -56 10 -176 11 -183 1z m172 -85 c19 -15 14 -54 -10 -71 -12 -9
-37 -16 -55 -16 -33 0 -33 0 -33 49 0 30 5 51 13 54 16 6 69 -3 85 -16z"/>
<path d="M3987 1473 l-57 -4 2 -177 3 -177 128 -3 128 -3 -3 33 -3 33 -80 5
-80 5 0 35 0 35 55 3 c86 4 100 9 100 37 0 14 -6 25 -12 26 -7 0 -42 1 -78 2
-63 2 -65 3 -68 30 -5 46 12 57 89 57 59 0 70 3 80 21 7 14 8 24 1 31 -12 12
-118 17 -205 11z"/>
<path d="M4303 1472 c-8 -5 -11 -57 -10 -185 l2 -177 113 0 112 0 0 40 0 40
-70 0 -69 0 -3 143 -3 142 -30 3 c-16 1 -35 -1 -42 -6z"/>
<path d="M2000 1300 c0 -93 0 -173 0 -177 0 -5 57 -8 127 -8 118 0 128 1 131
19 7 32 -25 46 -106 46 l-73 0 3 38 3 37 55 3 c86 4 100 9 100 37 0 23 -4 25
-47 27 -27 1 -57 3 -68 4 -11 1 -26 2 -33 3 -9 1 -12 13 -10 39 l3 37 85 5
c84 5 85 5 88 33 l3 27 -130 0 -131 0 0 -170z"/>
<path d="M2414 1456 c-72 -32 -106 -131 -78 -225 28 -95 107 -141 208 -122 76
14 152 88 115 112 -24 15 -44 10 -85 -21 -53 -40 -87 -39 -131 5 -34 34 -35
38 -31 90 5 62 32 100 76 108 30 6 92 -16 92 -32 0 -17 40 -33 66 -27 48 12
17 79 -53 115 -30 15 -141 13 -179 -3z"/>
<path d="M2136 950 c-41 -13 -95 -68 -106 -110 -14 -51 -12 -127 4 -158 8 -15
30 -42 49 -61 32 -30 43 -34 104 -38 108 -8 172 32 199 124 26 89 3 170 -60
218 -38 29 -138 42 -190 25z m140 -94 c30 -30 34 -40 34 -84 0 -39 -6 -57 -25
-80 -30 -36 -75 -48 -113 -33 -73 31 -89 161 -25 211 40 32 88 27 129 -14z"/>
<path d="M3315 954 c-11 -3 -30 -7 -43 -10 -26 -5 -52 -56 -52 -103 0 -21 11
-38 41 -65 22 -21 48 -36 57 -35 23 4 88 -19 102 -36 8 -10 8 -19 0 -34 -21
-40 -105 -20 -121 28 -5 14 -81 -9 -86 -25 -2 -6 11 -27 29 -48 30 -34 39 -38
93 -43 119 -10 175 25 175 112 0 51 -43 90 -117 106 -70 16 -103 40 -87 66 23
37 124 19 124 -22 0 -19 40 -20 65 -1 16 12 17 17 6 44 -7 17 -21 38 -30 46
-18 16 -119 29 -156 20z"/>
<path d="M1450 934 c0 -9 18 -78 39 -153 22 -75 42 -148 45 -163 11 -48 105
-54 118 -8 4 14 14 53 24 88 25 91 46 81 74 -38 17 -70 25 -80 65 -80 18 0 37
6 43 13 5 6 24 66 42 132 18 66 41 140 51 165 10 25 14 49 10 53 -5 5 -28 7
-52 5 -41 -3 -44 -5 -47 -33 -3 -43 -33 -154 -42 -160 -13 -8 -26 17 -49 95
-12 41 -24 81 -27 88 -2 9 -17 12 -41 10 -35 -3 -38 -6 -45 -43 -13 -70 -41
-155 -53 -165 -10 -8 -18 9 -34 68 -11 43 -21 86 -21 94 0 38 -12 48 -56 48
-34 0 -44 -4 -44 -16z"/>
<path d="M2488 945 c-3 -3 -1 -31 4 -62 5 -31 7 -111 6 -177 l-3 -121 35 0 35
0 0 62 c1 35 6 68 12 74 23 23 54 -2 86 -69 l32 -67 53 -3 52 -3 -29 47 c-40
63 -48 100 -25 125 11 13 19 41 22 79 4 55 2 61 -26 90 -30 30 -31 30 -140 30
-60 0 -111 -2 -114 -5z m197 -110 c0 -27 -5 -32 -43 -44 -58 -18 -72 -10 -72
39 l0 41 58 -3 c56 -3 57 -3 57 -33z"/>
<path d="M2865 768 l3 -183 42 -3 42 -3 -7 30 c-9 40 11 101 33 101 10 0 29
-21 45 -50 15 -27 35 -56 43 -65 21 -20 104 -21 104 -1 0 8 -5 18 -11 21 -18
12 -99 144 -99 163 0 18 79 134 99 147 25 15 7 25 -43 25 -52 0 -55 -2 -77
-37 -31 -51 -72 -103 -81 -103 -5 0 -8 32 -8 70 l0 70 -44 0 -44 0 3 -182z"/>
</g>
</svg>
